<?xml version="1.0" encoding="UTF-8"?>
<svg width="700pt" height="700pt" version="1.1" viewBox="0 0 700 700" xmlns="http://www.w3.org/2000/svg">
 <path d="m594.99 52.656c-0.011719-2.0234-0.37891-4.0352-1.0859-5.9336-0.18359-0.52734-0.44922-1-0.68359-1.5117h-0.003906c-0.67578-1.4531-1.5547-2.8086-2.6055-4.0234-0.24609-0.28516-0.33203-0.65234-0.59766-0.92578-0.14453-0.14844-0.34766-0.19531-0.49609-0.33594-0.22266-0.21094-0.36328-0.48438-0.59766-0.6875h-0.003907c-1.3516-1.1484-2.8711-2.0859-4.5039-2.7773-0.30859-0.13281-0.63281-0.15234-0.94531-0.26563-1.5977-0.57812-3.2695-0.92578-4.9648-1.0195-0.60938-0.027343-1.2227-0.023437-1.832 0.019531-1.5039 0.074219-2.9922 0.34375-4.4258 0.80859-0.53516 0.16797-1.0625 0.26953-1.582 0.48828-0.22656 0.097656-0.47266 0.10937-0.69922 0.21484l-455 217.26 0.003906 0.003906c-3.7969 1.8164-6.8164 4.9375-8.4961 8.7969-1.6836 3.8555-1.9219 8.1914-0.66797 12.211 1.2539 4.0156 3.9102 7.4492 7.4883 9.668l131.94 81.711c-0.027344 0.39844-0.23047 0.73438-0.23047 1.1406v140c0 3.5586 1.0859 7.0312 3.1094 9.957 2.0234 2.9219 4.8906 5.1602 8.2227 6.4141 1.9688 0.75 4.0586 1.1328 6.168 1.1289 5.0312-0.003906 9.8203-2.168 13.141-5.9453l76.141-86.707 88.875 55.039h0.003906c4.625 2.8516 10.305 3.3984 15.387 1.4844 5.082-1.918 8.9883-6.082 10.574-11.277l127.63-420c0.44922-1.5352 0.6875-3.1211 0.70703-4.7188zm-105.09 61.062-227.2 222.28-103.75-64.254zm-209.9 347.33v-73.16l41.617 25.773zm159.74-15.414-146.39-90.656 247.54-242.18z"/>
</svg>
